<?xml version="1.0" encoding="UTF-8"?><svg xmlns="http://www.w3.org/2000/svg" xmlns:xlink="http://www.w3.org/1999/xlink" contentScriptType="text/ecmascript" width="375" zoomAndPan="magnify" contentStyleType="text/css" viewBox="0 0 375 149.999998" height="149.999998" preserveAspectRatio="xMidYMid meet" version="1.0"><defs><clipPath id="clip-0"><path d="M 89.382812 2 L 285.882812 2 L 285.882812 148.515625 L 89.382812 148.515625 Z M 89.382812 2 " clip-rule="nonzero"/></clipPath></defs><rect x="-37.5" width="450" fill="rgb(100%, 100%, 100%)" y="-15" height="179.999997" fill-opacity="1"/><rect x="-37.5" width="450" fill="rgb(100%, 100%, 100%)" y="-15" height="179.999997" fill-opacity="1"/><rect x="-37.5" width="450" fill="rgb(18.429565%, 17.649841%, 15.289307%)" y="-15" height="179.999997" fill-opacity="1"/><g clip-path="url(#clip-0)"><path fill="rgb(96.859741%, 70.199585%, 23.139954%)" d="M 281.179688 58.824219 C 281.152344 58.414062 281.054688 58.007812 280.902344 57.628906 C 277.75 40.902344 263.367188 30.542969 244.851562 30.542969 C 238.226562 30.542969 228.777344 28.496094 221.398438 41.574219 L 187.796875 41.574219 C 188.292969 35.039062 189.96875 32.019531 191.871094 29.304688 C 194.671875 25.320312 197.847656 20.394531 197.847656 7.160156 C 197.847656 4.898438 196.023438 2.871094 193.761719 2.871094 C 191.5 2.871094 189.671875 4.597656 189.671875 6.851562 C 189.671875 17.507812 187.59375 21.226562 185.171875 24.671875 C 182.824219 28.019531 180.191406 28.5 179.589844 41.574219 L 153.851562 41.574219 C 146.476562 28.5 137.023438 30.542969 130.398438 30.542969 C 111.96875 30.542969 97.078125 42.386719 94.152344 60.277344 C 92.761719 78.394531 89.523438 120.492188 89.523438 121.859375 C 89.523438 136.160156 100.980469 148.605469 114.046875 148.605469 C 125.734375 148.605469 133.34375 144.253906 136.664062 135.800781 C 136.710938 135.722656 136.757812 135.617188 136.789062 135.53125 L 145.230469 115.792969 C 148.660156 118.394531 153.34375 121.589844 159.011719 121.589844 C 169.089844 121.589844 178.449219 113.472656 182.039062 106.933594 L 193.257812 106.933594 C 196.777344 113.472656 205.933594 120.417969 216.257812 120.417969 C 221.78125 120.417969 226.296875 118.957031 229.953125 116.796875 L 238.515625 135.761719 C 238.546875 135.832031 238.589844 135.789062 238.621094 135.871094 C 241.941406 144.3125 249.550781 148.539062 261.230469 148.539062 C 274.511719 148.539062 285.757812 136.75 285.757812 122.832031 C 285.730469 121.480469 282.550781 77.613281 281.179688 58.824219 Z M 138.574219 80.78125 L 128.765625 80.78125 L 128.765625 88.953125 C 128.765625 91.222656 127.757812 93.039062 125.492188 93.039062 C 123.230469 93.039062 122.222656 91.222656 122.222656 88.953125 L 122.222656 80.78125 L 114.046875 80.78125 C 111.785156 80.78125 109.960938 79.78125 109.960938 77.511719 C 109.960938 75.25 111.785156 74.246094 114.046875 74.246094 L 122.222656 74.246094 L 122.222656 64.441406 C 122.222656 62.179688 123.230469 60.355469 125.492188 60.355469 C 127.757812 60.355469 128.765625 62.183594 128.765625 64.441406 L 128.765625 74.246094 L 138.574219 74.246094 C 140.835938 74.246094 142.660156 75.25 142.660156 77.511719 C 142.660156 79.78125 140.835938 80.78125 138.574219 80.78125 Z M 179.449219 80.78125 L 171.277344 80.78125 C 169.011719 80.78125 167.1875 79.78125 167.1875 77.511719 C 167.1875 75.25 169.011719 74.246094 171.277344 74.246094 L 179.449219 74.246094 C 181.714844 74.246094 183.539062 75.25 183.539062 77.511719 C 183.539062 79.78125 181.714844 80.78125 179.449219 80.78125 Z M 203.976562 80.78125 L 195.800781 80.78125 C 193.539062 80.78125 191.714844 79.78125 191.714844 77.511719 C 191.714844 75.25 193.539062 74.246094 195.800781 74.246094 L 203.976562 74.246094 C 206.238281 74.246094 208.066406 75.25 208.066406 77.511719 C 208.066406 79.78125 206.238281 80.78125 203.976562 80.78125 Z M 228.503906 97.125 C 223.996094 97.125 220.328125 93.460938 220.328125 88.953125 C 220.328125 84.457031 223.996094 80.78125 228.503906 80.78125 C 233.015625 80.78125 236.679688 84.457031 236.679688 88.953125 C 236.679688 93.46875 233.015625 97.125 228.503906 97.125 Z M 228.503906 72.609375 C 223.996094 72.609375 220.328125 68.957031 220.328125 64.441406 C 220.328125 59.9375 223.996094 56.269531 228.503906 56.269531 C 233.015625 56.269531 236.679688 59.9375 236.679688 64.441406 C 236.679688 68.957031 233.015625 72.609375 228.503906 72.609375 Z M 253.027344 97.125 C 248.523438 97.125 244.851562 93.460938 244.851562 88.953125 C 244.851562 84.457031 248.523438 80.78125 253.027344 80.78125 C 257.542969 80.78125 261.203125 84.457031 261.203125 88.953125 C 261.203125 93.46875 257.542969 97.125 253.027344 97.125 Z M 253.027344 72.609375 C 248.523438 72.609375 244.851562 68.957031 244.851562 64.441406 C 244.851562 59.9375 248.523438 56.269531 253.027344 56.269531 C 257.542969 56.269531 261.203125 59.9375 261.203125 64.441406 C 261.203125 68.957031 257.542969 72.609375 253.027344 72.609375 Z M 253.027344 72.609375 " fill-opacity="1" fill-rule="nonzero"/></g></svg>